<?xml version='1.0' encoding='utf-8'?>
<svg xmlns="http://www.w3.org/2000/svg" width="1600" height="900" viewBox="0 0 1600 900" role="img" aria-labelledby="figure-title figure-description" font-family="PingFang SC, Noto Sans CJK SC, Microsoft YaHei, sans-serif">
  <title id="figure-title">图 10-6　评估经验证与授权进入生产</title>
  <desc id="figure-description">Evaluation 评分诊断生成候选变更，经构建回归安全验证、治理授权发布门禁，进入灰度控制面后由 Gateway 执行；Gateway 观测反馈 Evaluation 形成闭环，不允许 Evaluation 直接写控制面。Gateway 分别向模型服务、MCP Server 和 Agent Runtime 三种不同端点发送请求。外部 Registry 或服务发现为控制面提供端点及健康信息。实线表示请求，点线表示观测，长虚线表示候选变更，点划线表示发布配置或发现。低风险自动调整必须处于预授权范围，仍通过验证与发布门禁。</desc>
  <rect x="0" y="0" width="1600" height="900" fill="#F8FAFC" />
  <g id="panels">
    <path d="M 64 145 L 1536 145" fill="none" stroke="#CBD5E1" stroke-width="1" stroke-linecap="round" stroke-linejoin="round" />
    <path d="M 64 834 L 1536 834" fill="none" stroke="#CBD5E1" stroke-width="1" stroke-linecap="round" stroke-linejoin="round" />
    <rect x="64" y="362" width="512" height="141" rx="16" fill="#FFFFFF" stroke="#CBD5E1" stroke-width="1.3" />
    <rect x="64" y="769" width="1056" height="52" rx="16" fill="#FFFFFF" stroke="#CBD5E1" stroke-width="1.3" />
  </g>
  <g id="connectors">
    <path d="M 326 234 L 383 234" fill="none" stroke="#68518B" stroke-width="2.4" stroke-linecap="round" stroke-linejoin="round" stroke-dasharray="10 7" />
    <path d="M 383 234 L 374.0 230.0 L 374.0 238.0 Z" fill="#68518B" data-arrow="true" />
    <path d="M 624 234 L 681 234" fill="none" stroke="#68518B" stroke-width="2.4" stroke-linecap="round" stroke-linejoin="round" stroke-dasharray="10 7" />
    <path d="M 681 234 L 672.0 230.0 L 672.0 238.0 Z" fill="#68518B" data-arrow="true" />
    <path d="M 1011 234 L 1068 234" fill="none" stroke="#68518B" stroke-width="2.4" stroke-linecap="round" stroke-linejoin="round" stroke-dasharray="10 7" />
    <path d="M 1068 234 L 1059.0 230.0 L 1059.0 238.0 Z" fill="#68518B" data-arrow="true" />
    <path d="M 1302 290 L 1302 382" fill="none" stroke="#526579" stroke-width="2.4" stroke-linecap="round" stroke-linejoin="round" stroke-dasharray="10 4 2 4" />
    <path d="M 1302 382 L 1306.0 373.0 L 1298.0 373.0 Z" fill="#526579" data-arrow="true" />
    <path d="M 1032 438 L 1130 438" fill="none" stroke="#526579" stroke-width="2.4" stroke-linecap="round" stroke-linejoin="round" stroke-dasharray="10 4 2 4" />
    <path d="M 1130 438 L 1121.0 434.0 L 1121.0 442.0 Z" fill="#526579" data-arrow="true" />
    <path d="M 1130 462 L 1080 462 L 1080 521 L 860 521 L 860 554" fill="none" stroke="#526579" stroke-width="2.4" stroke-linecap="round" stroke-linejoin="round" stroke-dasharray="10 4 2 4" />
    <path d="M 860 554 L 864.0 545.0 L 856.0 545.0 Z" fill="#526579" data-arrow="true" />
    <path d="M 644 610 L 710 610" fill="none" stroke="#192D43" stroke-width="2.4" stroke-linecap="round" stroke-linejoin="round" />
    <path d="M 710 610 L 701.0 606.0 L 701.0 614.0 Z" fill="#192D43" data-arrow="true" />
    <path d="M 1010 610 L 1158 610 L 1158 586.5 L 1230 586.5" fill="none" stroke="#192D43" stroke-width="2.4" stroke-linecap="round" stroke-linejoin="round" />
    <path d="M 1230 586.5 L 1221.0 582.5 L 1221.0 590.5 Z" fill="#192D43" data-arrow="true" />
    <path d="M 1158 610 L 1158 687.5 L 1230 687.5" fill="none" stroke="#192D43" stroke-width="2.4" stroke-linecap="round" stroke-linejoin="round" />
    <path d="M 1230 687.5 L 1221.0 683.5 L 1221.0 691.5 Z" fill="#192D43" data-arrow="true" />
    <path d="M 1158 687.5 L 1158 788.5 L 1230 788.5" fill="none" stroke="#192D43" stroke-width="2.4" stroke-linecap="round" stroke-linejoin="round" />
    <path d="M 1230 788.5 L 1221.0 784.5 L 1221.0 792.5 Z" fill="#192D43" data-arrow="true" />
    <path d="M 860 666 L 860 711 L 366 711 L 366 620 L 328 620" fill="none" stroke="#166D69" stroke-width="2.4" stroke-linecap="round" stroke-linejoin="round" stroke-dasharray="2 7" />
    <path d="M 328 620 L 337.0 624.0 L 337.0 616.0 Z" fill="#166D69" data-arrow="true" />
    <path d="M 64 620 L 40 620 L 40 234 L 64 234" fill="none" stroke="#166D69" stroke-width="2.4" stroke-linecap="round" stroke-linejoin="round" stroke-dasharray="2 7" />
    <path d="M 64 234 L 55.0 230.0 L 55.0 238.0 Z" fill="#166D69" data-arrow="true" />
    <path d="M 85 795 L 142 795" fill="none" stroke="#192D43" stroke-width="2.4" stroke-linecap="round" stroke-linejoin="round" />
    <path d="M 142 795 L 133.0 791.0 L 133.0 799.0 Z" fill="#192D43" data-arrow="true" />
    <path d="M 275 795 L 332 795" fill="none" stroke="#166D69" stroke-width="2.4" stroke-linecap="round" stroke-linejoin="round" stroke-dasharray="2 7" />
    <path d="M 332 795 L 323.0 791.0 L 323.0 799.0 Z" fill="#166D69" data-arrow="true" />
    <path d="M 465 795 L 522 795" fill="none" stroke="#68518B" stroke-width="2.4" stroke-linecap="round" stroke-linejoin="round" stroke-dasharray="10 7" />
    <path d="M 522 795 L 513.0 791.0 L 513.0 799.0 Z" fill="#68518B" data-arrow="true" />
    <path d="M 737 795 L 794 795" fill="none" stroke="#526579" stroke-width="2.4" stroke-linecap="round" stroke-linejoin="round" stroke-dasharray="10 4 2 4" />
    <path d="M 794 795 L 785.0 791.0 L 785.0 799.0 Z" fill="#526579" data-arrow="true" />
  </g>
  <g id="nodes">
    <rect x="64" y="178" width="262" height="112" rx="14" fill="#F3F0F8" stroke="#68518B" stroke-width="1.3" id="evaluation" data-node="true" />
    <rect x="383" y="178" width="241" height="112" rx="14" fill="#F3F0F8" stroke="#68518B" stroke-width="1.3" id="candidate" data-node="true" />
    <rect x="681" y="178" width="330" height="112" rx="14" fill="#FFFFFF" stroke="#CBD5E1" stroke-width="1.3" id="validation" data-node="true" />
    <rect x="1068" y="178" width="468" height="112" rx="14" fill="#FFFFFF" stroke="#CBD5E1" stroke-width="1.3" id="gate" data-node="true" />
    <rect x="650" y="382" width="382" height="112" rx="14" fill="#F3F0F8" stroke="#68518B" stroke-width="1.3" id="registry" data-node="true" />
    <rect x="1130" y="382" width="406" height="112" rx="14" fill="#EDF4FB" stroke="#245B93" stroke-width="1.3" id="control-plane" data-node="true" />
    <rect x="710" y="554" width="300" height="112" rx="14" fill="#EDF4FB" stroke="#245B93" stroke-width="1.3" id="gateway" data-node="true" />
    <rect x="400" y="567" width="244" height="86" rx="14" fill="#FFFFFF" stroke="#CBD5E1" stroke-width="1.3" id="client" data-node="true" />
    <rect x="1230" y="554" width="306" height="65" rx="14" fill="#FFFFFF" stroke="#CBD5E1" stroke-width="1.3" id="model" data-node="true" />
    <rect x="1230" y="655" width="306" height="65" rx="14" fill="#FFFFFF" stroke="#CBD5E1" stroke-width="1.3" id="mcp" data-node="true" />
    <rect x="1230" y="756" width="306" height="65" rx="14" fill="#FFFFFF" stroke="#CBD5E1" stroke-width="1.3" id="runtime" data-node="true" />
    <rect x="64" y="567" width="264" height="106" rx="14" fill="#ECF7F4" stroke="#166D69" stroke-width="1.3" id="observation" data-node="true" />
  </g>
  <g id="labels">
    <text x="64" y="34" font-size="15" fill="#526579" font-weight="600" text-anchor="start">AI GATEWAY  /  第 10 章  /  图 10-6</text>
    <text x="64" y="86" font-size="38" fill="#192D43" font-weight="600" text-anchor="start">评估经验证与授权进入生产</text>
    <text x="64" y="123" font-size="20" fill="#526579" font-weight="400" text-anchor="start">Evaluation 产出候选变更；验证与治理门禁之后，变更才可进入灰度和控制面。</text>
    <text x="64" y="872" font-size="18" fill="#526579" font-weight="400" text-anchor="start">图注｜评估不能直接驱动控制面；低风险自动调整也必须在预授权范围内，并经过验证与发布门禁。</text>
    <text x="195.0" y="228.0" font-size="24" fill="#68518B" font-weight="600" text-anchor="middle">Evaluation</text>
    <text x="195.0" y="261.0" font-size="18" fill="#526579" font-weight="400" text-anchor="middle">评分 / 诊断</text>
    <text x="503.5" y="228.0" font-size="24" fill="#68518B" font-weight="600" text-anchor="middle">候选变更</text>
    <text x="503.5" y="261.0" font-size="18" fill="#526579" font-weight="400" text-anchor="middle">策略 / 配置提案</text>
    <text x="846.0" y="228.0" font-size="24" fill="#192D43" font-weight="600" text-anchor="middle">构建 / 回归 / 安全验证</text>
    <text x="846.0" y="261.0" font-size="18" fill="#526579" font-weight="400" text-anchor="middle">验证未通过，不进入发布</text>
    <text x="1302.0" y="228.0" font-size="24" fill="#192D43" font-weight="600" text-anchor="middle">治理授权 / 发布门禁</text>
    <text x="1302.0" y="261.0" font-size="18" fill="#526579" font-weight="400" text-anchor="middle">在授权范围内放行或阻断</text>
    <text x="841.0" y="432.0" font-size="25" fill="#68518B" font-weight="600" text-anchor="middle">Registry / 服务发现</text>
    <text x="841.0" y="465.0" font-size="18" fill="#526579" font-weight="400" text-anchor="middle">提供端点与健康信息</text>
    <text x="1333.0" y="432.0" font-size="27" fill="#245B93" font-weight="600" text-anchor="middle">灰度 / 控制面</text>
    <text x="1333.0" y="465.0" font-size="18" fill="#526579" font-weight="400" text-anchor="middle">分发已获授权的有效配置</text>
    <text x="1273" y="339" font-size="18" fill="#526579" font-weight="400" text-anchor="end">验证与授权通过</text>
    <text x="860.0" y="604.0" font-size="26" fill="#245B93" font-weight="600" text-anchor="middle">Gateway 执行</text>
    <text x="860.0" y="637.0" font-size="18" fill="#526579" font-weight="400" text-anchor="middle">按已生效策略处理请求</text>
    <text x="522.0" y="604.0" font-size="24" fill="#192D43" font-weight="600" text-anchor="middle">调用方</text>
    <text x="522.0" y="637.0" font-size="18" fill="#526579" font-weight="400" text-anchor="middle">发起线上请求</text>
    <text x="1383.0" y="594.5" font-size="25" fill="#192D43" font-weight="600" text-anchor="middle">模型服务</text>
    <text x="1383.0" y="695.5" font-size="25" fill="#192D43" font-weight="600" text-anchor="middle">MCP Server</text>
    <text x="1383.0" y="796.5" font-size="25" fill="#192D43" font-weight="600" text-anchor="middle">Agent Runtime</text>
    <text x="1160" y="540" font-size="18" fill="#526579" font-weight="400" text-anchor="middle">不同执行端点</text>
    <text x="196.0" y="614.0" font-size="26" fill="#166D69" font-weight="600" text-anchor="middle">观测</text>
    <text x="196.0" y="647.0" font-size="18" fill="#526579" font-weight="400" text-anchor="middle">用量 / 质量 / 失败信号</text>
    <text x="480" y="740" font-size="18" fill="#166D69" font-weight="400" text-anchor="start">观测反馈</text>
    <text x="88" y="399" font-size="24" fill="#192D43" font-weight="600" text-anchor="start">低风险自动调整也受门禁约束</text>
    <text x="88" y="436" font-size="22" fill="#526579" font-weight="400" text-anchor="start">必须位于预授权范围内</text>
    <text x="88" y="477" font-size="21" fill="#526579" font-weight="400" text-anchor="start">仍须验证与发布门禁；不直接写控制面</text>
    <text x="157" y="802" font-size="18" fill="#526579" font-weight="400" text-anchor="start">请求</text>
    <text x="347" y="802" font-size="18" fill="#526579" font-weight="400" text-anchor="start">观测</text>
    <text x="537" y="802" font-size="18" fill="#526579" font-weight="400" text-anchor="start">候选变更</text>
    <text x="809" y="802" font-size="18" fill="#526579" font-weight="400" text-anchor="start">发布 / 配置 / 发现</text>
  </g>
</svg>